<svg width="40" height="62" viewBox="0 0 40 62" fill="none" xmlns="http://www.w3.org/2000/svg">
<path fill-rule="evenodd" clip-rule="evenodd" d="M30.105 30.5517C30.0492 30.911 29.913 31.253 29.7067 31.5522C29.5005 31.8512 29.2295 32.0995 28.9141 32.2785C28.2788 32.6903 27.7231 32.8962 27.1607 33.1021C25.9631 33.5172 24.7026 33.9323 23.3694 34.4139C21.9635 34.8953 20.703 35.3768 19.5782 35.7256C18.1755 36.2071 16.8423 36.6221 15.5752 37.1036C14.6219 37.5132 13.7265 38.0468 12.9121 38.6911C12.1546 39.3799 11.4936 40.1686 10.9469 41.0356C10.3846 41.9985 10.0306 43.2406 10.0306 44.6884C10.0306 47.5876 10.7319 49.7926 12.138 51.1708C13.5407 52.622 16.141 53.3094 19.995 53.3094C23.9253 53.3094 26.5917 52.5522 28.001 51.0347C29.4004 49.5169 30.1017 47.3817 30.1017 44.6254V30.5517H30.105ZM19.9983 0C26.8795 0 31.9312 1.31173 35.1567 4.00161C38.3856 6.62506 40 9.99904 40 13.9973V48.0691C40 49.4472 39.7221 50.9649 39.2324 52.6186C38.7363 54.2791 37.757 55.7934 36.212 57.1681C34.7398 58.5529 32.7053 59.7252 30.1083 60.6218C27.5114 61.5185 24.1435 62 20.0017 62C15.8664 62 12.492 61.5185 9.89821 60.6218C7.3046 59.7252 5.26675 58.5529 3.79455 57.1681C2.42504 55.9293 1.38752 54.365 0.777464 52.6186C0.281157 50.9681 0 49.4506 0 48.0725V42.6263C0 39.7271 0.770777 37.0373 2.3158 34.6894C3.8607 32.2785 6.03418 30.6248 8.84294 29.5886C10.2456 29.1071 11.86 28.6257 13.6829 28.0046C15.509 27.3802 17.1897 26.7593 18.8768 26.2114C20.564 25.6568 22.0362 25.1022 23.2967 24.6174C24.0573 24.3119 24.8299 24.0371 25.6124 23.7938L26.8762 23.1728C27.3724 22.8971 27.8587 22.4821 28.3517 21.9308C28.8413 21.3829 29.2614 20.7619 29.6154 20.0711C29.9894 19.3232 30.1821 18.4971 30.1778 17.6602V15.4518C30.183 14.6425 30.0138 13.8415 29.6815 13.104C29.4037 12.2738 28.8413 11.5167 28.0705 10.8292C27.2996 10.1385 26.2443 9.58725 24.9839 9.16883C23.7201 8.76037 22.0395 8.55116 20.1406 8.55116C16.2103 8.55116 13.6134 9.31495 12.2107 10.8957C11.0198 12.2771 10.3185 14.0006 10.1795 15.93C10.1795 16.3451 9.82873 16.6208 9.40538 16.6208L0.846951 16.7603C0.643641 16.7612 0.448181 16.6814 0.303162 16.5384C0.158272 16.3953 0.075403 16.2005 0.0728294 15.9965V14.004C0.0728294 12.0679 0.426819 10.2747 1.19759 8.55116C1.97171 6.82431 3.16597 5.37975 4.77713 4.13444C6.39151 2.89577 8.49886 1.86298 11.0231 1.17225C13.4811 0.342046 16.4982 0 20.0049 0H19.9983Z" fill="#F2F0D8"/>
</svg>
